<svg xmlns="http://www.w3.org/2000/svg" viewBox="0 0 64 64">
  <rect width="64" height="64" fill="#F4F2ED"/>
  <path fill="#171816" transform="translate(7.59 49.00) scale(0.06308 -0.06308)" d="M66.16666666666667 0V318.8333333333333V525.3333333333334H184.5L183.66666666666666 368.1666666666667H202.66666666666666Q216 425.1666666666667 239.91666666666666 463.5Q263.8333333333333 501.8333333333333 300.5833333333333 520.4166666666666Q337.3333333333333 539 386.8333333333333 539Q478 539 525.5833333333333 474.83333333333337Q573.1666666666666 410.6666666666667 573.1666666666666 273.8333333333333V0H428.6666666666667V258.3333333333333Q428.6666666666667 341.6666666666667 404.08333333333337 380.33333333333337Q379.5 419 331.6666666666667 419Q291.3333333333333 419 264.41666666666663 394.25Q237.5 369.5 223.91666666666669 328.83333333333337Q210.33333333333334 288.1666666666667 209.66666666666666 238.66666666666666V0Z"/>
  <circle cx="48.74" cy="45.50" r="3.5" fill="#A3D31F"/>
</svg>
